<svg xmlns="http://www.w3.org/2000/svg" xmlns:xlink="http://www.w3.org/1999/xlink" width="300" zoomAndPan="magnify" viewBox="0 0 224.87999 149.999998" height="200" preserveAspectRatio="xMidYMid meet" version="1.0">
  <defs>
    <clipPath id="85d68b83db">
      <path d="M 197 31 L 224.761719 31 L 224.761719 122 L 197 122 Z M 197 31 " clip-rule="nonzero" />
    </clipPath>
    <clipPath id="a2368537ab">
      <path d="M 224.464844 30.90625 L 224.875 122.355469 L 158.160156 122.652344 L 157.75 31.203125 Z M 224.464844 30.90625 " clip-rule="nonzero" />
    </clipPath>
    <clipPath id="08fa8a8d80">
      <path d="M 224.464844 30.90625 L 224.875 122.355469 L 158.160156 122.652344 L 157.75 31.203125 Z M 224.464844 30.90625 " clip-rule="nonzero" />
    </clipPath>
    <clipPath id="03f171e355">
      <path d="M 185 44 L 207 44 L 207 110 L 185 110 Z M 185 44 " clip-rule="nonzero" />
    </clipPath>
    <clipPath id="39f0291c7f">
      <path d="M 224.464844 30.90625 L 224.875 122.355469 L 158.160156 122.652344 L 157.75 31.203125 Z M 224.464844 30.90625 " clip-rule="nonzero" />
    </clipPath>
    <clipPath id="f3c5bc8599">
      <path d="M 224.464844 30.90625 L 224.875 122.355469 L 158.160156 122.652344 L 157.75 31.203125 Z M 224.464844 30.90625 " clip-rule="nonzero" />
    </clipPath>
    <clipPath id="7ff5bdfd59">
      <path d="M 172 56 L 189 56 L 189 98 L 172 98 Z M 172 56 " clip-rule="nonzero" />
    </clipPath>
    <clipPath id="b09ec5a1e3">
      <path d="M 224.464844 30.90625 L 224.875 122.355469 L 158.160156 122.652344 L 157.75 31.203125 Z M 224.464844 30.90625 " clip-rule="nonzero" />
    </clipPath>
    <clipPath id="0db6123419">
      <path d="M 224.464844 30.90625 L 224.875 122.355469 L 158.160156 122.652344 L 157.75 31.203125 Z M 224.464844 30.90625 " clip-rule="nonzero" />
    </clipPath>
    <clipPath id="2212f68d49">
      <path d="M 157 70 L 170 70 L 170 83 L 157 83 Z M 157 70 " clip-rule="nonzero" />
    </clipPath>
    <clipPath id="cc1ff430bc">
      <path d="M 224.464844 30.90625 L 224.875 122.355469 L 158.160156 122.652344 L 157.75 31.203125 Z M 224.464844 30.90625 " clip-rule="nonzero" />
    </clipPath>
    <clipPath id="764a241549">
      <path d="M 224.464844 30.90625 L 224.875 122.355469 L 158.160156 122.652344 L 157.75 31.203125 Z M 224.464844 30.90625 " clip-rule="nonzero" />
    </clipPath>
    <clipPath id="5c27124387">
      <path d="M 0 23.507812 L 126.683594 23.507812 L 126.683594 126.953125 L 0 126.953125 Z M 0 23.507812 " clip-rule="nonzero" />
    </clipPath>
  </defs>
  <g clip-path="url(#85d68b83db)">
    <g clip-path="url(#a2368537ab)">
      <g clip-path="url(#08fa8a8d80)">
        <path fill="#bbb" d="M 206.707031 120.457031 C 212.597656 114.523438 217.148438 107.613281 220.230469 99.925781 C 223.210938 92.5 224.703125 84.664062 224.667969 76.632812 C 224.632812 68.601562 223.070312 60.78125 220.023438 53.378906 C 216.871094 45.71875 212.257812 38.851562 206.316406 32.972656 C 204.328125 31.003906 201.117188 31.019531 199.148438 33.003906 C 197.175781 34.988281 197.191406 38.191406 199.179688 40.160156 C 219.472656 60.242188 219.617188 93.066406 199.507812 113.332031 C 198.523438 114.324219 198.035156 115.621094 198.039062 116.917969 C 198.046875 118.210938 198.546875 119.503906 199.539062 120.488281 C 201.527344 122.457031 204.734375 122.441406 206.707031 120.457031 Z M 206.707031 120.457031 " fill-opacity="1" fill-rule="nonzero" />
      </g>
    </g>
  </g>
  <g clip-path="url(#03f171e355)">
    <g clip-path="url(#39f0291c7f)">
      <g clip-path="url(#f3c5bc8599)">
        <path fill="#bbb" d="M 206.21875 76.703125 C 206.167969 64.988281 201.542969 53.988281 193.203125 45.730469 C 191.320312 43.871094 188.289062 43.882812 186.425781 45.761719 C 184.5625 47.636719 184.578125 50.667969 186.457031 52.527344 C 199.914062 65.847656 200.011719 87.617188 186.671875 101.054688 C 185.742188 101.992188 185.28125 103.21875 185.285156 104.441406 C 185.289062 105.667969 185.761719 106.890625 186.703125 107.820312 C 188.582031 109.679688 191.617188 109.664062 193.480469 107.789062 C 201.746094 99.457031 206.273438 88.414062 206.21875 76.699219 Z M 206.21875 76.703125 " fill-opacity="1" fill-rule="nonzero" />
      </g>
    </g>
  </g>
  <g clip-path="url(#7ff5bdfd59)">
    <g clip-path="url(#b09ec5a1e3)">
      <g clip-path="url(#0db6123419)">
        <path fill="#bbb" d="M 188.929688 76.78125 C 188.894531 69.65625 186.085938 62.96875 181.011719 57.949219 C 179.144531 56.101562 176.125 56.113281 174.273438 57.980469 C 172.417969 59.847656 172.433594 62.859375 174.300781 64.710938 C 181.03125 71.371094 181.082031 82.261719 174.410156 88.980469 C 173.484375 89.914062 173.023438 91.132812 173.03125 92.351562 C 173.035156 93.570312 173.507812 94.785156 174.441406 95.710938 C 176.3125 97.5625 179.328125 97.546875 181.183594 95.683594 C 186.207031 90.617188 188.960938 83.90625 188.929688 76.78125 Z M 188.929688 76.78125 " fill-opacity="1" fill-rule="nonzero" />
      </g>
    </g>
  </g>
  <g clip-path="url(#2212f68d49)">
    <g clip-path="url(#cc1ff430bc)">
      <g clip-path="url(#764a241549)">
        <path fill="#bbb" d="M 163.851562 82.683594 C 163.464844 82.6875 163.085938 82.652344 162.707031 82.578125 C 162.328125 82.503906 161.960938 82.394531 161.605469 82.25 C 161.25 82.105469 160.910156 81.925781 160.589844 81.710938 C 160.265625 81.5 159.96875 81.257812 159.695312 80.988281 C 159.421875 80.71875 159.179688 80.421875 158.960938 80.101562 C 158.746094 79.785156 158.566406 79.449219 158.414062 79.09375 C 158.265625 78.738281 158.152344 78.371094 158.078125 77.996094 C 158 77.617188 157.960938 77.238281 157.960938 76.851562 C 157.957031 76.46875 157.992188 76.085938 158.066406 75.710938 C 158.140625 75.332031 158.25 74.964844 158.394531 74.609375 C 158.542969 74.253906 158.722656 73.914062 158.933594 73.59375 C 159.144531 73.273438 159.386719 72.976562 159.660156 72.703125 C 159.929688 72.429688 160.226562 72.1875 160.542969 71.972656 C 160.863281 71.757812 161.199219 71.574219 161.554688 71.425781 C 161.910156 71.277344 162.277344 71.164062 162.65625 71.085938 C 163.03125 71.011719 163.414062 70.972656 163.800781 70.96875 C 164.183594 70.96875 164.566406 71.003906 164.945312 71.078125 C 165.320312 71.148438 165.691406 71.257812 166.046875 71.40625 C 166.402344 71.550781 166.742188 71.730469 167.0625 71.941406 C 167.382812 72.15625 167.679688 72.394531 167.953125 72.667969 C 168.226562 72.9375 168.472656 73.230469 168.6875 73.550781 C 168.902344 73.871094 169.085938 74.207031 169.234375 74.5625 C 169.382812 74.914062 169.496094 75.28125 169.574219 75.660156 C 169.652344 76.035156 169.691406 76.417969 169.691406 76.800781 C 169.691406 77.1875 169.65625 77.566406 169.582031 77.945312 C 169.511719 78.320312 169.402344 78.6875 169.253906 79.042969 C 169.109375 79.402344 168.929688 79.738281 168.71875 80.058594 C 168.503906 80.378906 168.261719 80.675781 167.992188 80.949219 C 167.71875 81.222656 167.425781 81.46875 167.105469 81.683594 C 166.785156 81.898438 166.449219 82.082031 166.09375 82.230469 C 165.738281 82.378906 165.371094 82.492188 164.996094 82.566406 C 164.617188 82.644531 164.238281 82.683594 163.851562 82.683594 Z M 163.851562 82.683594 " fill-opacity="1" fill-rule="nonzero" />
      </g>
    </g>
  </g>
  <g clip-path="url(#5c27124387)">
    <path fill="#bbb" d="M 43.617188 89.277344 L 43.617188 63.027344 L 0.148438 63.027344 L 0.148438 89.277344 Z M 82.421875 92.210938 L 71.78125 97.199219 L 71.78125 110.785156 L 83.230469 126.953125 L 109.332031 126.953125 C 118.839844 126.953125 126.546875 119.21875 126.546875 109.679688 L 126.546875 92.210938 Z M 55.15625 109.871094 L 55.15625 97.4375 L 44.734375 92.210938 L 0.148438 92.210938 L 0.148438 109.679688 C 0.148438 119.21875 7.855469 126.953125 17.363281 126.953125 L 43.207031 126.953125 Z M 71.78125 41.742188 L 71.78125 54.195312 L 68.859375 54.195312 L 68.859375 40.882812 L 79.917969 23.507812 L 46.566406 23.507812 L 58.078125 41.40625 L 58.078125 55.003906 L 46.539062 62.363281 L 46.539062 89.839844 L 58.078125 95.621094 L 58.078125 110.796875 L 46.777344 126.953125 L 79.644531 126.953125 L 68.859375 111.722656 L 68.859375 95.332031 L 80.636719 89.8125 L 80.636719 60.09375 L 126.546875 60.09375 L 126.546875 40.785156 C 126.546875 31.242188 118.839844 23.507812 109.332031 23.507812 L 83.386719 23.507812 Z M 44.652344 60.09375 L 55.15625 53.390625 L 55.15625 42.269531 L 43.085938 23.507812 L 17.363281 23.507812 C 7.855469 23.507812 0.148438 31.242188 0.148438 40.785156 L 0.148438 60.09375 Z M 83.558594 89.277344 L 83.558594 63.027344 L 126.546875 63.027344 L 126.546875 89.277344 L 83.558594 89.277344 " fill-opacity="1" fill-rule="nonzero" />
  </g>
</svg>